<mxfile host="65bd71144e">
    <diagram id="mJ-dKqEsO_aJzeUCnxig" name="Page-1">
        <mxGraphModel dx="-2203" dy="-63" grid="1" gridSize="10" guides="1" tooltips="1" connect="1" arrows="1" fold="1" page="1" pageScale="1" pageWidth="1100" pageHeight="850" background="none" math="0" shadow="0">
            <root>
                <mxCell id="0"/>
                <mxCell id="1" parent="0"/>
                <mxCell id="TwvXh9vUwDTi54hIFf0M-492" value="" style="verticalLabelPosition=bottom;verticalAlign=top;html=1;shape=mxgraph.basic.patternFillRect;fillStyle=grid;step=20;fillStrokeWidth=0.2;fillStrokeColor=#dddddd;strokeWidth=1;fillColor=#FFFFFF;fontFamily=Times New Roman;fontSize=20;align=center;" parent="1" vertex="1">
                    <mxGeometry x="3560" y="920" width="560" height="280" as="geometry"/>
                </mxCell>
                <mxCell id="TwvXh9vUwDTi54hIFf0M-493" value="" style="rounded=0;whiteSpace=wrap;html=1;strokeWidth=2;fillColor=#d5e8d4;strokeColor=#82b366;" parent="1" vertex="1">
                    <mxGeometry x="3880" y="1120" width="80" height="40" as="geometry"/>
                </mxCell>
                <mxCell id="TwvXh9vUwDTi54hIFf0M-494" value="" style="rounded=0;whiteSpace=wrap;html=1;strokeWidth=2;fillColor=#dae8fc;strokeColor=#6c8ebf;" parent="1" vertex="1">
                    <mxGeometry x="3600" y="1040" width="80" height="40" as="geometry"/>
                </mxCell>
                <mxCell id="TwvXh9vUwDTi54hIFf0M-495" value="" style="rounded=0;whiteSpace=wrap;html=1;strokeWidth=2;fillColor=#dae8fc;strokeColor=#6c8ebf;" parent="1" vertex="1">
                    <mxGeometry x="3760" y="1040" width="80" height="40" as="geometry"/>
                </mxCell>
                <mxCell id="TwvXh9vUwDTi54hIFf0M-496" value="" style="rounded=0;whiteSpace=wrap;html=1;strokeWidth=2;fillColor=#dae8fc;strokeColor=#6c8ebf;" parent="1" vertex="1">
                    <mxGeometry x="3960" y="1040" width="80" height="40" as="geometry"/>
                </mxCell>
                <mxCell id="TwvXh9vUwDTi54hIFf0M-497" value="" style="rounded=0;whiteSpace=wrap;html=1;strokeWidth=2;fillColor=#d5e8d4;strokeColor=#82b366;" parent="1" vertex="1">
                    <mxGeometry x="3680" y="1120" width="40" height="40" as="geometry"/>
                </mxCell>
                <mxCell id="TwvXh9vUwDTi54hIFf0M-498" value="Time bin 0" style="rounded=0;whiteSpace=wrap;html=1;strokeWidth=2;fillColor=#f5f5f5;strokeColor=#666666;fontFamily=Times New Roman;fontSize=20;" parent="1" vertex="1">
                    <mxGeometry x="3600" y="960" width="160" height="40" as="geometry"/>
                </mxCell>
                <mxCell id="TwvXh9vUwDTi54hIFf0M-499" value="Time bin 1" style="rounded=0;whiteSpace=wrap;html=1;strokeWidth=2;fillColor=#f5f5f5;strokeColor=#666666;fontFamily=Times New Roman;fontSize=20;" parent="1" vertex="1">
                    <mxGeometry x="3760" y="960" width="160" height="40" as="geometry"/>
                </mxCell>
                <mxCell id="TwvXh9vUwDTi54hIFf0M-500" value="Time bin 2" style="rounded=0;whiteSpace=wrap;html=1;strokeWidth=2;fillColor=#f5f5f5;strokeColor=#666666;fontFamily=Times New Roman;fontSize=20;" parent="1" vertex="1">
                    <mxGeometry x="3920" y="960" width="160" height="40" as="geometry"/>
                </mxCell>
                <mxCell id="TwvXh9vUwDTi54hIFf0M-501" style="edgeStyle=orthogonalEdgeStyle;rounded=1;orthogonalLoop=1;jettySize=auto;html=1;strokeWidth=2;" parent="1" edge="1">
                    <mxGeometry relative="1" as="geometry">
                        <mxPoint x="3600" y="1020" as="targetPoint"/>
                        <mxPoint x="3600" y="1080" as="sourcePoint"/>
                    </mxGeometry>
                </mxCell>
                <mxCell id="TwvXh9vUwDTi54hIFf0M-502" style="edgeStyle=orthogonalEdgeStyle;rounded=1;orthogonalLoop=1;jettySize=auto;html=1;strokeWidth=2;" parent="1" edge="1">
                    <mxGeometry relative="1" as="geometry">
                        <mxPoint x="3760" y="1020" as="targetPoint"/>
                        <mxPoint x="3760" y="1080" as="sourcePoint"/>
                    </mxGeometry>
                </mxCell>
                <mxCell id="TwvXh9vUwDTi54hIFf0M-503" style="edgeStyle=orthogonalEdgeStyle;rounded=1;orthogonalLoop=1;jettySize=auto;html=1;strokeWidth=2;" parent="1" edge="1">
                    <mxGeometry relative="1" as="geometry">
                        <mxPoint x="3920" y="1020" as="targetPoint"/>
                        <mxPoint x="3920" y="1080" as="sourcePoint"/>
                    </mxGeometry>
                </mxCell>
                <mxCell id="TwvXh9vUwDTi54hIFf0M-504" style="edgeStyle=orthogonalEdgeStyle;rounded=1;orthogonalLoop=1;jettySize=auto;html=1;strokeWidth=2;" parent="1" edge="1">
                    <mxGeometry relative="1" as="geometry">
                        <mxPoint x="3600" y="1100" as="targetPoint"/>
                        <mxPoint x="3600" y="1160" as="sourcePoint"/>
                    </mxGeometry>
                </mxCell>
                <mxCell id="TwvXh9vUwDTi54hIFf0M-505" style="edgeStyle=orthogonalEdgeStyle;rounded=1;orthogonalLoop=1;jettySize=auto;html=1;strokeWidth=2;" parent="1" edge="1">
                    <mxGeometry relative="1" as="geometry">
                        <mxPoint x="3880" y="1100" as="targetPoint"/>
                        <mxPoint x="3880" y="1160" as="sourcePoint"/>
                    </mxGeometry>
                </mxCell>
                <mxCell id="TwvXh9vUwDTi54hIFf0M-506" value="Network schedule" style="text;html=1;strokeColor=none;fillColor=none;align=left;verticalAlign=middle;whiteSpace=wrap;rounded=0;fontSize=20;fontColor=#000000;fontFamily=Times New Roman;spacing=0;" parent="1" vertex="1">
                    <mxGeometry x="3450" y="945" width="100" height="60" as="geometry"/>
                </mxCell>
                <mxCell id="TwvXh9vUwDTi54hIFf0M-507" value="QNetStack process" style="text;html=1;strokeColor=none;fillColor=none;align=left;verticalAlign=middle;whiteSpace=wrap;rounded=0;fontSize=20;fontColor=#000000;fontFamily=Times New Roman;spacing=0;" parent="1" vertex="1">
                    <mxGeometry x="3450" y="1025" width="100" height="60" as="geometry"/>
                </mxCell>
                <mxCell id="TwvXh9vUwDTi54hIFf0M-508" value="User process" style="text;html=1;strokeColor=none;fillColor=none;align=left;verticalAlign=middle;whiteSpace=wrap;rounded=0;fontSize=20;fontColor=#000000;fontFamily=Times New Roman;spacing=0;" parent="1" vertex="1">
                    <mxGeometry x="3450" y="1105" width="100" height="60" as="geometry"/>
                </mxCell>
                <mxCell id="TwvXh9vUwDTi54hIFf0M-509" value="" style="html=1;aspect=fixed;strokeColor=none;shadow=0;align=center;verticalAlign=top;shape=mxgraph.gcp2.check;fontFamily=Times New Roman;fontSize=20;fillColor=#6C8EBF;" parent="1" vertex="1">
                    <mxGeometry x="3670" y="1015" width="25" height="20" as="geometry"/>
                </mxCell>
                <mxCell id="TwvXh9vUwDTi54hIFf0M-510" value="" style="html=1;aspect=fixed;strokeColor=none;shadow=0;align=center;verticalAlign=top;shape=mxgraph.gcp2.check;fontFamily=Times New Roman;fontSize=20;fillColor=#6C8EBF;" parent="1" vertex="1">
                    <mxGeometry x="3830" y="1015" width="25" height="20" as="geometry"/>
                </mxCell>
                <mxCell id="TwvXh9vUwDTi54hIFf0M-511" value="" style="html=1;aspect=fixed;strokeColor=none;shadow=0;align=center;verticalAlign=top;shape=mxgraph.gcp2.check;fontFamily=Times New Roman;fontSize=20;fillColor=#6C8EBF;" parent="1" vertex="1">
                    <mxGeometry x="4030" y="1015" width="25" height="20" as="geometry"/>
                </mxCell>
                <mxCell id="TwvXh9vUwDTi54hIFf0M-512" value="" style="html=1;aspect=fixed;strokeColor=none;shadow=0;align=center;verticalAlign=top;shape=mxgraph.gcp2.check;fontFamily=Times New Roman;fontSize=20;fillColor=#82B366;" parent="1" vertex="1">
                    <mxGeometry x="3950" y="1095" width="25" height="20" as="geometry"/>
                </mxCell>
                <mxCell id="TwvXh9vUwDTi54hIFf0M-513" value="0" style="text;html=1;strokeColor=none;fillColor=none;align=center;verticalAlign=middle;whiteSpace=wrap;rounded=0;fontSize=20;fontColor=#000000;fontFamily=Times New Roman;spacing=0;fontStyle=0" parent="1" vertex="1">
                    <mxGeometry x="3580" y="1200" width="40" height="40" as="geometry"/>
                </mxCell>
                <mxCell id="TwvXh9vUwDTi54hIFf0M-514" value="2" style="text;html=1;strokeColor=none;fillColor=none;align=center;verticalAlign=middle;whiteSpace=wrap;rounded=0;fontSize=20;fontColor=#000000;fontFamily=Times New Roman;spacing=0;fontStyle=0" parent="1" vertex="1">
                    <mxGeometry x="3660" y="1200" width="40" height="40" as="geometry"/>
                </mxCell>
                <mxCell id="TwvXh9vUwDTi54hIFf0M-515" value="3" style="text;html=1;strokeColor=none;fillColor=none;align=center;verticalAlign=middle;whiteSpace=wrap;rounded=0;fontSize=20;fontColor=#000000;fontFamily=Times New Roman;spacing=0;fontStyle=0" parent="1" vertex="1">
                    <mxGeometry x="3700" y="1200" width="40" height="40" as="geometry"/>
                </mxCell>
                <mxCell id="TwvXh9vUwDTi54hIFf0M-516" value="4" style="text;html=1;strokeColor=none;fillColor=none;align=center;verticalAlign=middle;whiteSpace=wrap;rounded=0;fontSize=20;fontColor=#000000;fontFamily=Times New Roman;spacing=0;fontStyle=0" parent="1" vertex="1">
                    <mxGeometry x="3740" y="1200" width="40" height="40" as="geometry"/>
                </mxCell>
                <mxCell id="TwvXh9vUwDTi54hIFf0M-517" value="6" style="text;html=1;strokeColor=none;fillColor=none;align=center;verticalAlign=middle;whiteSpace=wrap;rounded=0;fontSize=20;fontColor=#000000;fontFamily=Times New Roman;spacing=0;fontStyle=0" parent="1" vertex="1">
                    <mxGeometry x="3820" y="1200" width="40" height="40" as="geometry"/>
                </mxCell>
                <mxCell id="TwvXh9vUwDTi54hIFf0M-518" value="7" style="text;html=1;strokeColor=none;fillColor=none;align=center;verticalAlign=middle;whiteSpace=wrap;rounded=0;fontSize=20;fontColor=#000000;fontFamily=Times New Roman;spacing=0;fontStyle=0" parent="1" vertex="1">
                    <mxGeometry x="3860" y="1200" width="40" height="40" as="geometry"/>
                </mxCell>
                <mxCell id="TwvXh9vUwDTi54hIFf0M-519" value="8" style="text;html=1;strokeColor=none;fillColor=none;align=center;verticalAlign=middle;whiteSpace=wrap;rounded=0;fontSize=20;fontColor=#000000;fontFamily=Times New Roman;spacing=0;fontStyle=0" parent="1" vertex="1">
                    <mxGeometry x="3900" y="1200" width="40" height="40" as="geometry"/>
                </mxCell>
                <mxCell id="TwvXh9vUwDTi54hIFf0M-520" value="9" style="text;html=1;strokeColor=none;fillColor=none;align=center;verticalAlign=middle;whiteSpace=wrap;rounded=0;fontSize=20;fontColor=#000000;fontFamily=Times New Roman;spacing=0;fontStyle=0" parent="1" vertex="1">
                    <mxGeometry x="3940" y="1200" width="40" height="40" as="geometry"/>
                </mxCell>
                <mxCell id="TwvXh9vUwDTi54hIFf0M-521" value="11" style="text;html=1;strokeColor=none;fillColor=none;align=center;verticalAlign=middle;whiteSpace=wrap;rounded=0;fontSize=20;fontColor=#000000;fontFamily=Times New Roman;spacing=0;fontStyle=0" parent="1" vertex="1">
                    <mxGeometry x="4020" y="1200" width="40" height="40" as="geometry"/>
                </mxCell>
                <mxCell id="TwvXh9vUwDTi54hIFf0M-522" value="12" style="text;html=1;strokeColor=none;fillColor=none;align=center;verticalAlign=middle;whiteSpace=wrap;rounded=0;fontSize=20;fontColor=#000000;fontFamily=Times New Roman;spacing=0;fontStyle=0" parent="1" vertex="1">
                    <mxGeometry x="4060" y="1200" width="40" height="40" as="geometry"/>
                </mxCell>
                <mxCell id="TwvXh9vUwDTi54hIFf0M-523" value="" style="group" parent="1" vertex="1" connectable="0">
                    <mxGeometry x="3600" y="1195" width="480" height="10" as="geometry"/>
                </mxCell>
                <mxCell id="TwvXh9vUwDTi54hIFf0M-524" value="" style="endArrow=none;html=1;strokeWidth=2;fontFamily=Times New Roman;fontSize=20;" parent="TwvXh9vUwDTi54hIFf0M-523" edge="1">
                    <mxGeometry width="50" height="50" relative="1" as="geometry">
                        <mxPoint as="sourcePoint"/>
                        <mxPoint y="10" as="targetPoint"/>
                    </mxGeometry>
                </mxCell>
                <mxCell id="TwvXh9vUwDTi54hIFf0M-525" value="" style="endArrow=none;html=1;strokeWidth=2;fontFamily=Times New Roman;fontSize=20;" parent="TwvXh9vUwDTi54hIFf0M-523" edge="1">
                    <mxGeometry width="50" height="50" relative="1" as="geometry">
                        <mxPoint x="39.90000000000005" as="sourcePoint"/>
                        <mxPoint x="39.90000000000005" y="10" as="targetPoint"/>
                    </mxGeometry>
                </mxCell>
                <mxCell id="TwvXh9vUwDTi54hIFf0M-526" value="" style="endArrow=none;html=1;strokeWidth=2;fontFamily=Times New Roman;fontSize=20;" parent="TwvXh9vUwDTi54hIFf0M-523" edge="1">
                    <mxGeometry width="50" height="50" relative="1" as="geometry">
                        <mxPoint x="79.99999999999991" as="sourcePoint"/>
                        <mxPoint x="79.99999999999991" y="10" as="targetPoint"/>
                    </mxGeometry>
                </mxCell>
                <mxCell id="TwvXh9vUwDTi54hIFf0M-527" value="" style="endArrow=none;html=1;strokeWidth=2;fontFamily=Times New Roman;fontSize=20;" parent="TwvXh9vUwDTi54hIFf0M-523" edge="1">
                    <mxGeometry width="50" height="50" relative="1" as="geometry">
                        <mxPoint x="119.89999999999998" as="sourcePoint"/>
                        <mxPoint x="119.89999999999998" y="10" as="targetPoint"/>
                    </mxGeometry>
                </mxCell>
                <mxCell id="TwvXh9vUwDTi54hIFf0M-528" value="" style="endArrow=none;html=1;strokeWidth=2;fontFamily=Times New Roman;fontSize=20;" parent="TwvXh9vUwDTi54hIFf0M-523" edge="1">
                    <mxGeometry width="50" height="50" relative="1" as="geometry">
                        <mxPoint x="159.99999999999983" as="sourcePoint"/>
                        <mxPoint x="159.99999999999983" y="10" as="targetPoint"/>
                    </mxGeometry>
                </mxCell>
                <mxCell id="TwvXh9vUwDTi54hIFf0M-529" value="" style="endArrow=none;html=1;strokeWidth=2;fontFamily=Times New Roman;fontSize=20;" parent="TwvXh9vUwDTi54hIFf0M-523" edge="1">
                    <mxGeometry width="50" height="50" relative="1" as="geometry">
                        <mxPoint x="199.8999999999999" as="sourcePoint"/>
                        <mxPoint x="199.8999999999999" y="10" as="targetPoint"/>
                    </mxGeometry>
                </mxCell>
                <mxCell id="TwvXh9vUwDTi54hIFf0M-530" value="" style="endArrow=none;html=1;strokeWidth=2;fontFamily=Times New Roman;fontSize=20;" parent="TwvXh9vUwDTi54hIFf0M-523" edge="1">
                    <mxGeometry width="50" height="50" relative="1" as="geometry">
                        <mxPoint x="239.99999999999977" as="sourcePoint"/>
                        <mxPoint x="239.99999999999977" y="10" as="targetPoint"/>
                    </mxGeometry>
                </mxCell>
                <mxCell id="TwvXh9vUwDTi54hIFf0M-531" value="" style="endArrow=none;html=1;strokeWidth=2;fontFamily=Times New Roman;fontSize=20;" parent="TwvXh9vUwDTi54hIFf0M-523" edge="1">
                    <mxGeometry width="50" height="50" relative="1" as="geometry">
                        <mxPoint x="279.8999999999998" as="sourcePoint"/>
                        <mxPoint x="279.8999999999998" y="10" as="targetPoint"/>
                    </mxGeometry>
                </mxCell>
                <mxCell id="TwvXh9vUwDTi54hIFf0M-532" value="" style="endArrow=none;html=1;strokeWidth=2;fontFamily=Times New Roman;fontSize=20;" parent="TwvXh9vUwDTi54hIFf0M-523" edge="1">
                    <mxGeometry width="50" height="50" relative="1" as="geometry">
                        <mxPoint x="319.99999999999966" as="sourcePoint"/>
                        <mxPoint x="319.99999999999966" y="10" as="targetPoint"/>
                    </mxGeometry>
                </mxCell>
                <mxCell id="TwvXh9vUwDTi54hIFf0M-533" value="" style="endArrow=none;html=1;strokeWidth=2;fontFamily=Times New Roman;fontSize=20;" parent="TwvXh9vUwDTi54hIFf0M-523" edge="1">
                    <mxGeometry width="50" height="50" relative="1" as="geometry">
                        <mxPoint x="359.9000000000002" as="sourcePoint"/>
                        <mxPoint x="359.9000000000002" y="10" as="targetPoint"/>
                    </mxGeometry>
                </mxCell>
                <mxCell id="TwvXh9vUwDTi54hIFf0M-534" value="" style="endArrow=none;html=1;strokeWidth=2;fontFamily=Times New Roman;fontSize=20;" parent="TwvXh9vUwDTi54hIFf0M-523" edge="1">
                    <mxGeometry width="50" height="50" relative="1" as="geometry">
                        <mxPoint x="399.9999999999996" as="sourcePoint"/>
                        <mxPoint x="399.9999999999996" y="10" as="targetPoint"/>
                    </mxGeometry>
                </mxCell>
                <mxCell id="TwvXh9vUwDTi54hIFf0M-535" value="" style="endArrow=none;html=1;strokeWidth=2;fontFamily=Times New Roman;fontSize=20;" parent="TwvXh9vUwDTi54hIFf0M-523" edge="1">
                    <mxGeometry width="50" height="50" relative="1" as="geometry">
                        <mxPoint x="439.9000000000001" as="sourcePoint"/>
                        <mxPoint x="439.9000000000001" y="10" as="targetPoint"/>
                    </mxGeometry>
                </mxCell>
                <mxCell id="TwvXh9vUwDTi54hIFf0M-536" value="" style="endArrow=none;html=1;strokeWidth=2;fontFamily=Times New Roman;fontSize=20;" parent="TwvXh9vUwDTi54hIFf0M-523" edge="1">
                    <mxGeometry width="50" height="50" relative="1" as="geometry">
                        <mxPoint x="480" as="sourcePoint"/>
                        <mxPoint x="480" y="10" as="targetPoint"/>
                    </mxGeometry>
                </mxCell>
                <mxCell id="TwvXh9vUwDTi54hIFf0M-537" value="" style="ellipse;whiteSpace=wrap;html=1;aspect=fixed;strokeWidth=2;fillColor=#82B366;fontFamily=Times New Roman;fontSize=20;align=left;strokeColor=none;" parent="1" vertex="1">
                    <mxGeometry x="3710" y="1095" width="20" height="20" as="geometry"/>
                </mxCell>
                <mxCell id="TwvXh9vUwDTi54hIFf0M-538" value="" style="rounded=0;whiteSpace=wrap;html=1;strokeWidth=2;fontFamily=Times New Roman;fontSize=20;align=left;strokeColor=none;fillColor=#FFFFFF;" parent="1" vertex="1">
                    <mxGeometry x="3714" y="1102.5" width="12" height="5" as="geometry"/>
                </mxCell>
                <mxCell id="TwvXh9vUwDTi54hIFf0M-539" style="edgeStyle=orthogonalEdgeStyle;rounded=1;orthogonalLoop=1;jettySize=auto;html=1;strokeWidth=2;endArrow=none;endFill=0;" parent="1" edge="1">
                    <mxGeometry relative="1" as="geometry">
                        <mxPoint x="4100" y="1080" as="targetPoint"/>
                        <mxPoint x="3580" y="1080" as="sourcePoint"/>
                    </mxGeometry>
                </mxCell>
                <mxCell id="TwvXh9vUwDTi54hIFf0M-540" style="edgeStyle=orthogonalEdgeStyle;rounded=1;orthogonalLoop=1;jettySize=auto;html=1;strokeWidth=2;endArrow=none;endFill=0;" parent="1" edge="1">
                    <mxGeometry relative="1" as="geometry">
                        <mxPoint x="4100" y="1000" as="targetPoint"/>
                        <mxPoint x="3580" y="1000" as="sourcePoint"/>
                    </mxGeometry>
                </mxCell>
                <mxCell id="TwvXh9vUwDTi54hIFf0M-541" style="edgeStyle=orthogonalEdgeStyle;rounded=1;orthogonalLoop=1;jettySize=auto;html=1;strokeWidth=2;endArrow=none;endFill=0;" parent="1" edge="1">
                    <mxGeometry relative="1" as="geometry">
                        <mxPoint x="4100" y="1160" as="targetPoint"/>
                        <mxPoint x="3580" y="1160" as="sourcePoint"/>
                    </mxGeometry>
                </mxCell>
                <mxCell id="TwvXh9vUwDTi54hIFf0M-542" value="1" style="text;html=1;strokeColor=none;fillColor=none;align=center;verticalAlign=middle;whiteSpace=wrap;rounded=0;fontSize=20;fontColor=#000000;fontFamily=Times New Roman;spacing=0;fontStyle=0" parent="1" vertex="1">
                    <mxGeometry x="3620" y="1200" width="40" height="40" as="geometry"/>
                </mxCell>
                <mxCell id="TwvXh9vUwDTi54hIFf0M-543" value="5" style="text;html=1;strokeColor=none;fillColor=none;align=center;verticalAlign=middle;whiteSpace=wrap;rounded=0;fontSize=20;fontColor=#000000;fontFamily=Times New Roman;spacing=0;fontStyle=0" parent="1" vertex="1">
                    <mxGeometry x="3780" y="1200" width="40" height="40" as="geometry"/>
                </mxCell>
                <mxCell id="TwvXh9vUwDTi54hIFf0M-544" value="10" style="text;html=1;strokeColor=none;fillColor=none;align=center;verticalAlign=middle;whiteSpace=wrap;rounded=0;fontSize=20;fontColor=#000000;fontFamily=Times New Roman;spacing=0;fontStyle=0" parent="1" vertex="1">
                    <mxGeometry x="3980" y="1200" width="40" height="40" as="geometry"/>
                </mxCell>
            </root>
        </mxGraphModel>
    </diagram>
</mxfile>